Encoded by Ratzz.








General
Complete name                                       : The Muppets 2011 1080p Brrip x264 AC3 5 1(6 ch) Ratzz MKV.mkv
Format                                              : Matroska
File size                                           : 2.39 GiB
Duration                                            : 1h 42mn
Overall bit rate                                    : 3 333 Kbps
Movie name                                          : The Muppets 1080p Brrip x264 AC3 5 1(6 ch) Ratzz MKV



Video
ID                                                  : 1
Format                                              : AVC
Format profile                                      : High@L5.1
Format settings, ReFrames                           : 3 frames
Codec ID                                            : V_MPEG4/ISO/AVC
Duration                                            : 1h 42mn
Bit rate mode                                       : Variable
Bit rate                                            : 2 693 Kbps
Maximum bit rate                                    : 300 Mbps
Width                                               : 1 920 pixels
Height                                              : 1 080 pixels
Display aspect ratio                                : 16:9
Frame rate                                          : 23.976 fps
Stream size                                         : 1.89 GiB (79%)

Audio
ID                                                  : 2
Format                                              : AC-3
Mode extension                                      : CM (complete main)
Duration                                            : 1h 42mn
Bit rate mode                                       : Constant
Bit rate                                            : 640 Kbps
Channel(s)                                          : 6 channels
Channel positions                                   : Front: L C R, Side: L R, LFE
Sampling rate                                       : 48.0 KHz
Compression mode                                    : Lossy
Stream size                                         : 470 MiB (19%)
Language                                            : English


Subtitles                                           : eng .srt included.





Poster :
 
http://img534.imageshack.us/img534/3810/themuppetsblurayposter.jpg


Screen shots :

 
http://img252.imageshack.us/img252/5941/themuppets1080pbrripx26.jpg
 
http://img29.imageshack.us/img29/5941/themuppets1080pbrripx26.jpg
 
http://img3.imageshack.us/img3/5941/themuppets1080pbrripx26.jpg






pls seed back after download and provide feedback.
thank you.